<svg width="134" height="32" viewBox="0 0 134 32" fill="none" xmlns="http://www.w3.org/2000/svg">
<path d="M37.728 26H49.608V23.12H40.992V18.464H49.128V15.584H40.992V11H49.608V8.12H37.728V26ZM56.7054 26.288C57.6974 26.288 58.5614 26.12 59.2974 25.784C60.0334 25.448 60.6094 24.984 61.0254 24.392C61.4414 23.784 61.6494 23.088 61.6494 22.304C61.6494 21.392 61.3614 20.608 60.7854 19.952C60.2094 19.296 59.3774 18.816 58.2894 18.512L56.2014 17.888C55.7534 17.76 55.3854 17.592 55.0974 17.384C54.8094 17.176 54.6654 16.888 54.6654 16.52C54.6654 16.136 54.8174 15.824 55.1214 15.584C55.4254 15.344 55.8414 15.224 56.3694 15.224C57.0254 15.224 57.6174 15.4 58.1454 15.752C58.6894 16.104 59.0654 16.576 59.2734 17.168L61.6734 16.04C61.2734 14.984 60.6014 14.16 59.6574 13.568C58.7134 12.96 57.6254 12.656 56.3934 12.656C55.4494 12.656 54.6094 12.824 53.8734 13.16C53.1534 13.496 52.5854 13.968 52.1694 14.576C51.7694 15.168 51.5694 15.864 51.5694 16.664C51.5694 17.56 51.8494 18.336 52.4094 18.992C52.9854 19.648 53.8254 20.136 54.9294 20.456L57.0654 21.056C57.4814 21.168 57.8334 21.336 58.1214 21.56C58.4254 21.768 58.5774 22.056 58.5774 22.424C58.5774 22.856 58.4014 23.2 58.0494 23.456C57.7134 23.696 57.2654 23.816 56.7054 23.816C55.9694 23.816 55.3054 23.608 54.7134 23.192C54.1214 22.776 53.6494 22.2 53.2974 21.464L50.9454 22.592C51.3294 23.712 52.0334 24.608 53.0574 25.28C54.0974 25.952 55.3134 26.288 56.7054 26.288ZM70.0176 26.144C70.5456 26.144 71.0656 26.104 71.5776 26.024V23.312C71.2736 23.36 70.9936 23.384 70.7376 23.384C69.9696 23.384 69.4096 23.208 69.0576 22.856C68.7056 22.504 68.5296 22 68.5296 21.344V15.752H71.5296V12.944H68.5296V9.968H65.3856V10.976C65.3856 11.616 65.2096 12.104 64.8576 12.44C64.5056 12.776 64.0096 12.944 63.3696 12.944H63.1296V15.752H65.3856V21.512C65.3856 22.968 65.7856 24.104 66.5856 24.92C67.4016 25.736 68.5456 26.144 70.0176 26.144ZM77.8693 26.288C79.5653 26.288 80.9253 25.728 81.9493 24.608V26H84.9253V17.312C84.9253 16.4 84.6933 15.592 84.2293 14.888C83.7653 14.184 83.1253 13.64 82.3093 13.256C81.5093 12.856 80.5733 12.656 79.5013 12.656C78.1893 12.656 77.0213 12.968 75.9973 13.592C74.9733 14.216 74.2693 15.04 73.8853 16.064L76.4533 17.312C76.6933 16.72 77.0693 16.248 77.5813 15.896C78.0933 15.528 78.6933 15.344 79.3813 15.344C80.1013 15.344 80.6773 15.536 81.1093 15.92C81.5573 16.288 81.7813 16.752 81.7813 17.312V17.744L77.8933 18.368C76.3573 18.624 75.2213 19.112 74.4853 19.832C73.7493 20.552 73.3813 21.456 73.3813 22.544C73.3813 23.696 73.7893 24.608 74.6053 25.28C75.4213 25.952 76.5093 26.288 77.8693 26.288ZM76.6453 22.424C76.6453 21.512 77.2613 20.936 78.4933 20.696L81.7813 20.144V20.672C81.7813 21.568 81.4693 22.328 80.8453 22.952C80.2373 23.576 79.4373 23.888 78.4453 23.888C77.9173 23.888 77.4853 23.76 77.1493 23.504C76.8133 23.232 76.6453 22.872 76.6453 22.424ZM93.5488 26.144C94.0768 26.144 94.5968 26.104 95.1088 26.024V23.312C94.8048 23.36 94.5248 23.384 94.2688 23.384C93.5008 23.384 92.9408 23.208 92.5888 22.856C92.2368 22.504 92.0608 22 92.0608 21.344V15.752H95.0608V12.944H92.0608V9.968H88.9168V10.976C88.9168 11.616 88.7408 12.104 88.3888 12.44C88.0368 12.776 87.5408 12.944 86.9008 12.944H86.6608V15.752H88.9168V21.512C88.9168 22.968 89.3168 24.104 90.1168 24.92C90.9328 25.736 92.0768 26.144 93.5488 26.144ZM103.586 26.288C104.914 26.288 106.074 25.992 107.066 25.4C108.074 24.792 108.778 24.024 109.178 23.096L106.634 21.848C106.346 22.344 105.946 22.752 105.434 23.072C104.938 23.376 104.33 23.528 103.61 23.528C102.666 23.528 101.874 23.24 101.234 22.664C100.594 22.088 100.226 21.32 100.13 20.36H109.538C109.602 20.184 109.642 19.984 109.658 19.76C109.69 19.52 109.706 19.28 109.706 19.04C109.706 17.872 109.458 16.808 108.962 15.848C108.466 14.888 107.746 14.12 106.802 13.544C105.858 12.952 104.706 12.656 103.346 12.656C102.13 12.656 101.026 12.952 100.034 13.544C99.0577 14.136 98.2817 14.944 97.7057 15.968C97.1457 16.976 96.8657 18.136 96.8657 19.448C96.8657 20.712 97.1457 21.864 97.7057 22.904C98.2657 23.944 99.0497 24.768 100.058 25.376C101.066 25.984 102.242 26.288 103.586 26.288ZM103.346 15.248C104.178 15.248 104.866 15.504 105.41 16.016C105.97 16.512 106.282 17.16 106.346 17.96H100.202C100.378 17.096 100.746 16.432 101.306 15.968C101.882 15.488 102.562 15.248 103.346 15.248ZM112.089 26H115.233V18.728C115.233 17.736 115.505 16.968 116.049 16.424C116.609 15.864 117.329 15.584 118.209 15.584H119.337V12.8H118.569C117.769 12.8 117.065 12.944 116.457 13.232C115.849 13.52 115.377 14.04 115.041 14.792V12.944H112.089V26ZM122.65 31.304C123.882 31.304 124.906 30.952 125.722 30.248C126.554 29.56 127.218 28.584 127.714 27.32L133.402 12.944H129.994L126.634 21.944L123.25 12.944H119.866L125.026 26L124.738 26.696C124.482 27.24 124.186 27.68 123.85 28.016C123.53 28.352 123.01 28.52 122.29 28.52C122.034 28.52 121.762 28.496 121.474 28.448C121.186 28.416 120.93 28.368 120.706 28.304V30.944C120.978 31.072 121.282 31.16 121.618 31.208C121.954 31.272 122.298 31.304 122.65 31.304Z" fill="#0E0854"/>
<g clip-path="url(#clip0_601_1112)">
<path d="M25.3335 11.6137L18.2229 6.08301C17.5989 5.59755 16.8308 5.33398 16.0402 5.33398C15.2496 5.33398 14.4816 5.59755 13.8575 6.08301L6.74554 11.6137C6.31813 11.9461 5.97233 12.3717 5.73454 12.8581C5.49676 13.3446 5.37328 13.8789 5.37354 14.4203V24.0203C5.37354 24.7276 5.65449 25.4059 6.15458 25.906C6.65468 26.4061 7.33296 26.687 8.0402 26.687H24.0402C24.7474 26.687 25.4257 26.4061 25.9258 25.906C26.4259 25.4059 26.7069 24.7276 26.7069 24.0203V14.4203C26.7069 13.323 26.2002 12.287 25.3335 11.6137Z" fill="#7065F0" stroke="#7065F0" stroke-width="3" stroke-linecap="round" stroke-linejoin="round"/>
<path d="M21.3332 20C18.3865 21.7773 13.6105 21.7773 10.6665 20" stroke="#F9FAFB" stroke-width="3" stroke-linecap="round" stroke-linejoin="round"/>
</g>
<defs>
<clipPath id="clip0_601_1112">
<rect width="32" height="32" fill="white"/>
</clipPath>
</defs>
</svg>
